Coordinates
version=1
nRows=6
nColumns=107
inDegrees=yes

Units are S.I. units (second, meters, Newtons, ...)
If the header above contains a line with 'inDegrees', this indicates whether rotational values are in degrees (yes) or radians (no).

endheader
time	sternoclavicular_r2	sternoclavicular_r3	unrotscap_r3	unrotscap_r2	acromioclavicular_r2	acromioclavicular_r3	acromioclavicular_r1	unrothum_r1	unrothum_r3	unrothum_r2	elv_angle	shoulder_elv	shoulder1_r2	shoulder_rot	elbow_flexion	pro_sup	deviation	flexion	proximal_distal_r1	proximal_distal_r3	cmc_flexion	cmc_abduction	mp_flexion	ip_flexion	mcp2_flexion	mcp2_abduction	pm2_flexion	md2_flexion	mcp3_flexion	mcp3_abduction	pm3_flexion	md3_flexion	mcp4_flexion	mcp4_abduction	pm4_flexion	md4_flexion	mcp5_flexion	mcp5_abduction	pm5_flexion	md5_flexion	bicpt_tx	bicpt_ty	bicpt_tz	bicpt2_tx	bicpt2_ty	bicpt2_tz	ptpt_tx	ptpt_ty	ptpt_tz	FCUpt_tx	FCUpt_ty	FCUpt_tz	EDCpt_tx	EDCpt_ty	EDCpt_tz	APLpt_tx	APLpt_ty	APLpt_tz	FPLpt_tx	FPLpt_ty	FPLpt_tz	FPLpt2_tx	FPLpt2_ty	FPLpt2_tz	PEC1pt2_tx	PEC1pt2_ty	PEC1pt2_tz	PEC1pt3_tx	PEC1pt3_ty	PEC1pt3_tz	PEC2pt2_tx	PEC2pt2_ty	PEC2pt2_tz	PEC2pt3_tx	PEC2pt3_ty	PEC2pt3_tz	PEC3pt2_tx	PEC3pt2_ty	PEC3pt2_tz	PEC3pt3_tx	PEC3pt3_ty	PEC3pt3_tz	DELT2pt2a_tx	DELT2pt2a_ty	DELT2pt2a_tz	DELT2pt2_tx	DELT2pt2_ty	DELT2pt2_tz	LAT1pt2_tx	LAT1pt2_ty	LAT1pt2_tz	LAT1pt3_tx	LAT1pt3_ty	LAT1pt3_tz	LAT2pt2_tx	LAT2pt2_ty	LAT2pt2_tz	LAT2pt3_tx	LAT2pt3_ty	LAT2pt3_tz	LAT3pt2_tx	LAT3pt2_ty	LAT3pt2_tz	LAT3pt3_tx	LAT3pt3_ty	LAT3pt3_tz
      1.60000000	     -0.31970065	      0.13541011	     -0.13541011	      0.31970065	     -0.06473288	      0.52314835	      0.23515158	     -0.23515158	     -0.52314835	      0.06473288	     99.73766823	     75.69197079	     -1.74075070	    -26.55747621	     29.02992122	     37.73397546	      0.27485715	     -0.21798461	      0.31118544	     -0.10899230	     27.05045468	    -13.87796336	    -18.70810317	      2.43189786	      6.18416972	      9.13992887	     22.55215273	     -1.36371913	     10.59670526	      0.69545970	     11.38586738	     13.54287849	      4.54371676	     -4.25563704	      8.09305801	     20.22171286	     -5.78184838	    -13.41558746	     18.98903815	      5.19513376	      0.00086022	     -0.03092727	     -0.00483594	      0.01656430	     -0.01808612	     -0.00770833	      0.00476188	     -0.06670284	     -0.00308967	      0.00755289	     -0.18354147	     -0.00036840	     -0.00452807	      0.00128886	      0.00016130	      0.00018324	      0.00007329	      0.00036647	      0.00023454	      0.00070362	      0.00039579	     -0.00000380	     -0.00026975	     -0.00032370	      0.00248102	      0.00870458	      0.00605536	     -0.00811587	      0.01959583	     -0.01858660	      0.00248102	      0.00870458	      0.00605536	      0.00054666	      0.01816609	     -0.00954561	      0.00392992	      0.00484051	      0.01592341	      0.00000000	      0.00766146	      0.00000000	     -0.00710664	     -0.03284193	     -0.00631655	      0.01727271	     -0.00064136	     -0.00589708	     -0.00088307	      0.01480200	     -0.00605536	      0.00243897	      0.02136197	     -0.01766147	     -0.00592921	      0.01282559	     -0.00542460	     -0.01236303	      0.02708093	     -0.03031887	     -0.02321222	      0.01433944	     -0.00727485	     -0.01539071	      0.03128604	     -0.03788807
      1.63333333	     -0.31951459	      0.13533130	     -0.13533130	      0.31951459	     -0.06469520	      0.52284389	      0.23501473	     -0.23501473	     -0.52284389	      0.06469520	     99.94909715	     75.64791903	     -1.74444083	    -26.88608138	     28.72961558	     37.45360304	      0.27501439	     -0.22129460	      0.31132773	     -0.11064730	     28.92926455	    -14.36737502	    -17.33931084	      3.15128794	      6.09767102	      9.33889389	     22.14426392	     -1.67608006	     10.19419016	      0.69148068	     10.90040510	     13.33974410	      3.98772421	     -4.22116996	      7.49003971	     20.01599330	     -6.84370455	    -13.45362080	     18.19253157	      5.05130137	      0.00085029	     -0.03089285	     -0.00483039	      0.01656224	     -0.01800454	     -0.00773732	      0.00478260	     -0.06668945	     -0.00306709	      0.00752487	     -0.18354712	     -0.00036590	     -0.00449442	      0.00127766	      0.00016295	      0.00018540	      0.00007416	      0.00037081	      0.00023732	      0.00071195	      0.00040047	     -0.00000699	     -0.00025829	     -0.00030995	      0.00247957	      0.00869952	      0.00605184	     -0.00811114	      0.01958442	     -0.01857578	      0.00247957	      0.00869952	      0.00605184	      0.00054635	      0.01815552	     -0.00954005	      0.00392824	      0.00483769	      0.01591929	      0.00000000	      0.00765248	      0.00000000	     -0.00710251	     -0.03282282	     -0.00630910	      0.01743282	     -0.00065225	     -0.00604331	     -0.00088256	      0.01479338	     -0.00605184	      0.00243755	      0.02134954	     -0.01765120	     -0.00592576	      0.01281813	     -0.00542144	     -0.01235584	      0.02706517	     -0.03030122	     -0.02319871	      0.01433109	     -0.00727061	     -0.01538176	      0.03126783	     -0.03786602
      1.66666667	     -0.31949358	      0.13532240	     -0.13532240	      0.31949358	     -0.06469095	      0.52280951	      0.23499928	     -0.23499928	     -0.52280951	      0.06469095	    100.08048766	     75.64294470	     -1.74673403	    -27.04836621	     28.47822462	     37.25452078	      0.27125373	     -0.22360410	      0.30790491	     -0.11180205	     30.38985474	    -15.24453681	    -15.79504485	      4.12198854	      5.61990688	      9.37981547	     21.34419785	     -2.21049210	      9.64145565	      0.60886196	     10.17405086	     13.00578297	      3.28413652	     -4.16243476	      6.53841251	     19.66385427	     -7.94873957	    -13.45234283	     17.14479792	      4.96584436	      0.00084197	     -0.03086404	     -0.00482575	      0.01656069	     -0.01793625	     -0.00775785	      0.00479731	     -0.06667993	     -0.00305105	      0.00750498	     -0.18355111	     -0.00036410	     -0.00447053	      0.00126972	      0.00016410	      0.00018691	      0.00007476	      0.00037381	      0.00023924	      0.00071772	      0.00040372	     -0.00000906	     -0.00024668	     -0.00029602	      0.00247941	      0.00869895	      0.00605144	     -0.00811061	      0.01958313	     -0.01857456	      0.00247941	      0.00869895	      0.00605144	      0.00054631	      0.01815432	     -0.00953942	      0.00392805	      0.00483737	      0.01591882	      0.00000000	      0.00765147	      0.00000000	     -0.00710204	     -0.03282066	     -0.00630826	      0.01751142	     -0.00065764	     -0.00611601	     -0.00088250	      0.01479241	     -0.00605144	      0.00243739	      0.02134814	     -0.01765004	     -0.00592537	      0.01281729	     -0.00542108	     -0.01235502	      0.02706339	     -0.03029923	     -0.02319719	      0.01433015	     -0.00727013	     -0.01538075	      0.03126578	     -0.03786353
      1.70000000	     -0.31935040	      0.13526176	     -0.13526176	      0.31935040	     -0.06466196	      0.52257521	      0.23489396	     -0.23489396	     -0.52257521	      0.06466196	    100.12285697	     75.60904541	     -1.74747351	    -27.19403231	     28.42493121	     37.09426452	      0.26688090	     -0.22388382	      0.30389658	     -0.11194191	     31.32471998	    -15.93734425	    -14.27662420	      5.18257695	      5.05071023	      9.22533875	     20.46023339	     -2.83198186	      9.04786466	      0.38780631	      9.48380973	     12.65471566	      2.64250338	     -4.25203641	      5.48877856	     19.27802371	     -8.90448023	    -13.47236025	     16.04124035	      4.93978467	      0.00084021	     -0.03085793	     -0.00482477	      0.01655934	     -0.01792177	     -0.00777432	      0.00480915	     -0.06667228	     -0.00303814	      0.00748899	     -0.18355431	     -0.00036262	     -0.00445130	      0.00126334	      0.00016500	      0.00018709	      0.00007484	      0.00037418	      0.00023947	      0.00071842	      0.00040411	     -0.00001018	     -0.00023800	     -0.00028559	      0.00247830	      0.00869505	      0.00604873	     -0.00810698	      0.01957436	     -0.01856624	      0.00247830	      0.00869505	      0.00604873	      0.00054607	      0.01814619	     -0.00953515	      0.00392676	      0.00483521	      0.01591564	      0.00000000	      0.00764456	      0.00000000	     -0.00709886	     -0.03280595	     -0.00630252	      0.01758155	     -0.00066249	     -0.00618167	     -0.00088211	      0.01478578	     -0.00604873	      0.00243629	      0.02133857	     -0.01764213	     -0.00592271	      0.01281154	     -0.00541865	     -0.01234949	      0.02705126	     -0.03028565	     -0.02318679	      0.01432373	     -0.00726688	     -0.01537385	      0.03125177	     -0.03784656
      1.73333333	     -0.31923329	      0.13521216	     -0.13521216	      0.31923329	     -0.06463825	      0.52238358	      0.23480783	     -0.23480783	     -0.52238358	      0.06463825	    100.13088145	     75.58131941	     -1.74761356	    -27.35188396	     28.42909099	     36.91373137	      0.25991694	     -0.22093511	      0.29744892	     -0.11046755	     31.63965824	    -16.57837600	    -12.58557780	      6.53878675	      4.29891276	      9.00922375	     19.33895369	     -3.69999188	      8.25071922	      0.16927470	      8.75089876	     12.22835675	      1.97260412	     -4.30103957	      4.12472894	     18.80424161	     -9.85738144	    -13.47307426	     14.59974551	      4.94342059	      0.00084035	     -0.03085841	     -0.00482484	      0.01655775	     -0.01792290	     -0.00779282	      0.00482249	     -0.06666365	     -0.00302360	      0.00747099	     -0.18355791	     -0.00036092	     -0.00442964	      0.00125617	      0.00016600	      0.00018517	      0.00007407	      0.00037034	      0.00023702	      0.00071105	      0.00039997	     -0.00001051	     -0.00023485	     -0.00028182	      0.00247739	      0.00869186	      0.00604651	     -0.00810400	      0.01956718	     -0.01855943	      0.00247739	      0.00869186	      0.00604651	      0.00054587	      0.01813953	     -0.00953165	      0.00392571	      0.00483343	      0.01591303	      0.00000000	      0.00763892	      0.00000000	     -0.00709625	     -0.03279392	     -0.00629784	      0.01765721	     -0.00066775	     -0.00625315	     -0.00088178	      0.01478036	     -0.00604651	      0.00243540	      0.02133075	     -0.01763566	     -0.00592054	      0.01280685	     -0.00541667	     -0.01234496	      0.02704134	     -0.03027454	     -0.02317829	      0.01431847	     -0.00726421	     -0.01536821	      0.03124031	     -0.03783268
      1.76666667	     -0.31929872	      0.13523987	     -0.13523987	      0.31929872	     -0.06465150	      0.52249065	      0.23485595	     -0.23485595	     -0.52249065	      0.06465150	    100.12451333	     75.59681118	     -1.74750242	    -27.36271983	     28.43364248	     36.90793539	      0.25996521	     -0.22096954	      0.29749312	     -0.11048477	     31.64310372	    -16.57813600	    -12.58230993	      6.54041028	      4.29524870	      9.00878777	     19.33769959	     -3.70148886	      8.24726827	      0.16805026	      8.75021586	     12.22797728	      1.97084850	     -4.30223479	      4.12243560	     18.80386188	     -9.85849992	    -13.47463081	     14.59750291	      4.94335327	      0.00084050	     -0.03085893	     -0.00482493	      0.01655769	     -0.01792414	     -0.00779341	      0.00482292	     -0.06666338	     -0.00302313	      0.00747041	     -0.18355803	     -0.00036087	     -0.00442894	      0.00125594	      0.00016603	      0.00018519	      0.00007408	      0.00037038	      0.00023705	      0.00071114	      0.00040001	     -0.00001052	     -0.00023481	     -0.00028177	      0.00247790	      0.00869364	      0.00604775	     -0.00810566	      0.01957119	     -0.01856323	      0.00247790	      0.00869364	      0.00604775	      0.00054598	      0.01814325	     -0.00953361	      0.00392630	      0.00483442	      0.01591449	      0.00000000	      0.00764207	      0.00000000	     -0.00709771	     -0.03280064	     -0.00630046	      0.01766240	     -0.00066811	     -0.00625807	     -0.00088196	      0.01478339	     -0.00604775	      0.00243590	      0.02133512	     -0.01763927	     -0.00592176	      0.01280947	     -0.00541778	     -0.01234749	      0.02704688	     -0.03028075	     -0.02318304	      0.01432141	     -0.00726570	     -0.01537136	      0.03124671	     -0.03784044
